<svg xmlns="http://www.w3.org/2000/svg" viewBox="0 0 16 16">
  <!-- Bootstrap Icons bi-broadcast, recoloured #dc3545 -->
  <path fill="#dc3545" d="M3.05 3.05a7 7 0 0 0 0 9.9.5.5 0 0 0 .707-.707 6 6 0 0 1 0-8.486A.5.5 0 0 0 3.05 3.05zm2.122 2.122a4 4 0 0 0 0 5.656.5.5 0 1 0 .707-.707 3 3 0 0 1 0-4.242.5.5 0 1 0-.707-.707zm5.656 0a.5.5 0 0 0-.707.707 3 3 0 0 1 0 4.242.5.5 0 0 0 .707.707 4 4 0 0 0 0-5.656zm2.122-2.122a.5.5 0 0 0-.707.707 6 6 0 0 1 0 8.486.5.5 0 0 0 .707.707 7 7 0 0 0 0-9.9zM8 6.5a1.5 1.5 0 1 0 0 3 1.5 1.5 0 0 0 0-3z"/>
</svg>
